<?xml version="1.0" encoding="UTF-8" standalone="no"?> <svg fill="#fff" id="line" xmlns="http://www.w3.org/2000/svg" viewBox="0 0 64 64"><title>1</title><path d="M56.39063,20.62939c-.28162-.65606-.58173-1.295-.88971-1.91845,1.96173-3.17414,2.4057-5.19715,1.36236-6.31055-.91907-.99109-2.59125-.86072-5.2063.38605C42.173,1.44482,28.34338,4.35162,28.21582,4.38086,16.56934,6.81006,11.4541,13.86865,9.21387,19.36279a.99991.99991,0,0,0,1.85159.75484c4.06692-11.911,24.64418-21.54558,38.78235-6.38213-7.58737,4.27977-19.56839,15.12622-26.25306,23.18105a53.74408,53.74408,0,0,0-4.74,6.42689A8.06946,8.06946,0,0,0,13.846,43.979a22.493,22.493,0,0,1-1.70242-2.57519,24.21965,24.21965,0,0,1-2.27246-17.625.99977.99977,0,0,0-1.94141-.47749A25.89205,25.89205,0,0,0,12.166,45.06879c-3.7749,2.73073-7.07664,9.63527-5.57989,13.66807a1.63289,1.63289,0,0,0,2.51841.96226,19.11384,19.11384,0,0,1,4.78319-2.28358,6.9451,6.9451,0,0,1,1.99413-.396c1.782-.03182,2.41285,1.01866,4.249.81445,1.83837-.15881,3.79285-2.14039,4.38133-4.12075,4.56234,1.244,7.32786,1.89328,11.04444,1.00334a5.37507,5.37507,0,0,0,3.89735-7.015c-1.82309-3.39541-1.82326-6.03619.26188-7.47747a5.24224,5.24224,0,0,1,3.07906-.91554h4.64453c3.875,0,5.51075-1.17627,5.89746-1.51123C60.87891,32.40381,56.58984,21.13721,56.39063,20.62939ZM30.162,41.94812l-4.43787-4.43787q1.05185-1.22908,2.23279-2.51678l4.85675,4.85638Q31.425,40.98821,30.162,41.94812Zm-8.17761,2.72913a6.9688,6.9688,0,0,0-1.16712-.70392,50.74324,50.74324,0,0,1,3.61261-4.9292l4.1087,4.1087a53.34517,53.34517,0,0,1-4.98706,3.28876A6.59348,6.59348,0,0,0,21.98438,44.67725Zm-.06153,9.75293c-2.14372,2.79839-3.11679.54737-6.04493.58925a8.66448,8.66448,0,0,0-2.54687.4752,20.37383,20.37383,0,0,0-4.93847,2.28271c-1.26237-3.974,3.72466-11.96926,7.71894-12.48623,2.42809-.21819,3.0669-.01018,4.66294.97874C22.89219,47.78329,23.66739,52.36917,21.92285,54.43018ZM52.13477,36.19873c-.19374.11588-1.13611,1.08647-4.69537,1.10988l-4.64448,0c-4.75885.12294-9.00048,3.80508-5.2042,11.12688,1.2378,6.34258-7.88151,4.88388-12.711,3.28956a9.15691,9.15691,0,0,0-.47654-3.46825A57.59358,57.59358,0,0,0,30.666,44.07373,122.60251,122.60251,0,0,0,41.15724,35.166c1.33495-1.26416,2.626-2.53516,3.83885-3.77784a1,1,0,1,0-1.43164-1.39648c-1.19433,1.22363-2.46679,2.47607-3.78125,3.7207-1.84637,1.74195-3.66607,3.36444-5.42767,4.8512l-5.04059-5.04022c1.66992-1.75983,3.46155-3.55072,5.352-5.33637,6.40235-6.04785,12.82617-11.0083,17.18457-13.27051,2.21657-1.10535,2.86909-1.20492,3.53709-1.167-.08852,3.20045-5.59972,9.48269-9.08479,13.37363a1,1,0,1,0,1.47251,1.35346A81.65906,81.65906,0,0,0,54.2113,20.6557C54.46121,21.11241,58.68694,31.33772,52.13477,36.19873Z"/><path d="M28.74121,16.32422c-.19278-6.05691-8.97551-6.05639-9.167.0001C19.7666,22.382,28.54933,22.37971,28.74121,16.32422Zm-7.167,0a2.58366,2.58366,0,0,1,5.167.00008A2.58366,2.58366,0,0,1,21.57422,16.32422Z"/><path d="M13.74805,29.0293c.19278,6.05691,8.97551,6.05638,9.167-.0001C22.72266,22.97149,13.93993,22.97381,13.74805,29.0293Zm7.167,0a2.58366,2.58366,0,0,1-5.167-.00008A2.58366,2.58366,0,0,1,20.915,29.0293Z"/><path d="M42.52637,13.52588c-.19239-6.05781-8.97512-6.05549-9.167.0001C33.55216,19.58279,42.33489,19.58226,42.52637,13.52588Zm-7.167,0a2.58366,2.58366,0,0,1,5.167.00008A2.58366,2.58366,0,0,1,35.35938,13.52588Z"/></svg>